# xmcd
#
# Track frame offsets:
#  150
#  17130
#  38097
#  55566
#  84002
#  100082
#  117489
#  134623
#  153530
#  174034
#  193168
#  211163
#  235078
#  243445
#  259151
#
# Disc length: 3711 seconds
#
# Revision: 0
# Processed by: cddbd v1.5.2PL0 Copyright (c) Steve Scherf et al.
# Submitted via: Collectorz.com_Music_Collector 6.11
#
DISCID=bc0e7d0f
DTITLE=The Cash Box Kings - The Royal Treatment
DYEAR=2006
DGENRE=Blues -  Blues Chicago -  Blues Harmonica
TTITLE0=Don't Go Drinkin'
TTITLE1=Please Set A Date
TTITLE2=The Low Roller
TTITLE3=My Little Machine
TTITLE4=Life Is Tough
TTITLE5=I'd Be A Liar
TTITLE6=Daddy Bear Blues
TTITLE7=Why Did I Start?
TTITLE8=New Boogie Woogie Baby
TTITLE9=Gypsy Woman
TTITLE10=Baby Please Don't Go
TTITLE11=Can't Hold Out Much Longer
TTITLE12=Lou and Roxie's Rhumba
TTITLE13=Gimmie Some Of That
TTITLE14=Honeymoon Blues
EXTD=
EXTT0=
EXTT1=
EXTT2=
EXTT3=
EXTT4=
EXTT5=
EXTT6=
EXTT7=
EXTT8=
EXTT9=
EXTT10=
EXTT11=
EXTT12=
EXTT13=
EXTT14=
PLAYORDER=
